<?xml version="1.0" standalone="no"?>
<!DOCTYPE svg PUBLIC "-//W3C//DTD SVG 1.1//EN" "http://www.w3.org/Graphics/SVG/1.1/DTD/svg11.dtd" >
<!--
2013-9-30: Created.
-->
<svg>
<metadata>
Created by iconfont
</metadata>
<defs>

<font id="iconfont" horiz-adv-x="1024" >
  <font-face
    font-family="iconfont"
    font-weight="500"
    font-stretch="normal"
    units-per-em="1024"
    ascent="896"
    descent="-128"
  />
    <missing-glyph />
    
    <glyph glyph-name="saoyisao" unicode="&#58883;" d="M777.8-31H246.2C163.9-31 97 35.9 97 118.2V240.9c0 23.7 19.2 42.9 42.9 42.9s42.9-19.2 42.9-42.9v-122.7c0-34.9 28.4-63.4 63.4-63.4h531.6c34.9 0 63.4 28.4 63.4 63.4V240.9c0 23.7 19.2 42.9 42.9 42.9s42.9-19.2 42.9-42.9v-122.7c0-82.3-66.9-149.2-149.2-149.2zM884.1 484.2c-23.7 0-42.9 19.2-42.9 42.9V649.8c0 35-28.4 63.4-63.4 63.4H246.2c-34.9 0-63.4-28.4-63.4-63.4v-122.7c0-23.7-19.2-42.9-42.9-42.9S97 503.4 97 527.1V649.8C97 732 163.9 799 246.2 799h531.6C860.1 799 927 732 927 649.8v-122.7c0-23.7-19.2-42.9-42.9-42.9zM869.8 341.1H154.2c-23.7 0-42.9 19.2-42.9 42.9s19.2 42.9 42.9 42.9h715.5c23.7 0 42.9-19.2 42.9-42.9 0.1-23.7-19.1-42.9-42.8-42.9z"  horiz-adv-x="1024" />

    
    <glyph glyph-name="gouwuche" unicode="&#58884;" d="M967.7 120.1H410.5c-77.6 0-144.4 57.9-155.3 134.7L197.6 658c-5 34.9-35.3 61.2-70.6 61.2H54.8C31.2 719.2 12 738.4 12 762s19.2 42.8 42.8 42.8H127c77.6 0 144.4-57.9 155.3-134.7L339.9 267c5-34.9 35.3-61.2 70.6-61.2h557.2c23.6 0 42.8-19.2 42.8-42.8s-19.2-42.9-42.8-42.9zM910.7 234.2c-3 0-6 0.3-9 0.9-23.1 5-37.8 27.7-32.9 50.8l56 261.4c4.5 21.2-0.7 42.9-14.3 59.8-13.6 16.8-33.8 26.5-55.5 26.5H368.6c-23.6 0-42.8 19.2-42.8 42.8s19.2 42.8 42.8 42.8h486.5c47.6 0 92.1-21.2 122-58.3 29.9-37 41.4-85 31.4-131.5l-56-261.4c-4.3-20-22.1-33.8-41.8-33.8zM397.1 20.3m-57.1 0a57.1 57.1 0 1 1 114.2 0 57.1 57.1 0 1 1-114.2 0ZM853.6 20.3m-57.1 0a57.1 57.1 0 1 1 114.2 0 57.1 57.1 0 1 1-114.2 0Z"  horiz-adv-x="1024" />

    
    <glyph glyph-name="shangyi" unicode="&#58885;" d="M647.3 716.5h0.2-0.2m-366-0.5h0.1-0.1m463.4-2l155.5-155.5-78.1-93.7c-25.9-31.1-40.2-70.5-40.2-110.9V84c0-16.5-13.5-30-30-30H272c-16.5 0-30 13.5-30 30V353.9c0 40.4-14.3 79.8-40.2 110.9l-78.1 93.7L279.3 714h99.5c33-39.8 81.4-62.5 133.2-62.5s100.2 22.7 133.2 62.5h99.5m2.8 90H642c-25.3 0-49.2-11.5-65-31.2-16.7-20.8-40.8-31.2-65-31.2s-48.3 10.4-65 31.2A83.33 83.33 0 0 1 382 804H276.5c-22.1 0-43.2-8.8-58.9-24.4L55.8 617.8c-30.4-30.4-32.7-79.1-5.1-112.2l82-98.4c12.5-15 19.3-33.8 19.3-53.3V84c0-66.3 53.7-120 120-120h480c66.3 0 120 53.7 120 120V353.9c0 19.5 6.8 38.3 19.3 53.3l82 98.4c27.6 33.1 25.4 81.7-5.1 112.2L806.4 779.6A83.338 83.338 0 0 1 747.5 804zM512 369.1c-26.9 0-53.8 10.2-74.2 30.7l-106.1 106c-17.6 17.6-17.6 46.1 0 63.6s46.1 17.6 63.6 0l106.1-106.1c5.9-5.9 15.4-5.8 21.2 0l106.1 106.1c17.6 17.5 46.1 17.6 63.6 0s17.6-46.1 0-63.6L586.2 399.7c-20.4-20.4-47.3-30.6-74.2-30.6z"  horiz-adv-x="1024" />

    
    <glyph glyph-name="shouye" unicode="&#58886;" d="M752-66.7H272c-91 0-165 74-165 165v300c0 24.9 20.2 45 45 45s45-20.1 45-45v-300c0-41.4 33.6-75 75-75h480c41.4 0 75 33.6 75 75v300c0 24.9 20.2 45 45 45s45-20.1 45-45v-300c0-90.9-74-165-165-165zM962 443.3c-9.3 0-18.6 2.8-26.6 8.7l-379 278c-26.5 19.4-62.2 19.4-88.7 0l-379-278c-20-14.7-48.2-10.4-62.9 9.7-14.7 20-10.3 48.2 9.7 62.9l379 278c58.4 42.8 136.8 42.8 195.1 0l379-278c20-14.7 24.4-42.9 9.7-62.9-8.8-12-22.5-18.4-36.3-18.4z"  horiz-adv-x="1024" />

    
    <glyph glyph-name="xiaoxi" unicode="&#58887;" d="M887 721.8c16.5 0 30-13.5 30-30v-480c0-16.5-13.5-30-30-30H531.3c-19.7 0-39-5.5-55.6-16l-145.1-90.7-16.3 40.6c-16 40.1-54.3 66-97.5 66H137c-16.5 0-30 13.5-30 30v480c0 16.5 13.5 30 30 30h750m0 90.1H137c-66.3 0-120-53.7-120-120v-480c0-66.3 53.7-120 120-120h79.8c6.1 0 11.7-3.7 13.9-9.4l42.9-107.3c4.8-11.9 16.1-18.9 27.9-18.9 5.4 0 10.9 1.5 15.8 4.6l205.9 128.7c2.4 1.5 5.1 2.3 7.9 2.3H887c66.3 0 120 53.7 120 120v480c0 66.3-53.7 120-120 120zM267 451.8m-60 0a60 60 0 1 1 120 0 60 60 0 1 1-120 0ZM512 451.8m-60 0a60 60 0 1 1 120 0 60 60 0 1 1-120 0ZM757 451.8m-60 0a60 60 0 1 1 120 0 60 60 0 1 1-120 0Z"  horiz-adv-x="1024" />

    
    <glyph glyph-name="youjian" unicode="&#58888;" d="M761.4 684L533.2 455.8c-7.6-7.6-16.6-8.8-21.2-8.8s-13.6 1.1-21.2 8.8L262.6 684h498.8m115.9 90H146.7c-37.4 0-56.2-45.2-29.7-71.7l310.1-310.1c23.4-23.4 54.1-35.1 84.9-35.1s61.4 11.7 84.9 35.1L907 702.3c26.5 26.5 7.7 71.7-29.7 71.7zM872 684c16.5 0 30-13.5 30-30v-540c0-16.5-13.5-30-30-30H152c-16.5 0-30 13.5-30 30V654c0 16.5 13.5 30 30 30h720m0 90H152c-66.3 0-120-53.7-120-120v-540c0-66.3 53.7-120 120-120h720c66.3 0 120 53.7 120 120V654c0 66.3-53.7 120-120 120z"  horiz-adv-x="1024" />

    
    <glyph glyph-name="sousuo" unicode="&#58889;" d="M463.4 777.6c198.5 0 360-161.5 360-360s-161.5-360-360-360-360 161.5-360 360 161.5 360 360 360m0 90c-248.5 0-450-201.5-450-450s201.5-450 450-450 450 201.5 450 450c0 248.6-201.5 450-450 450zM997.5-86.5c-17.6-17.6-46.1-17.6-63.6 0L806.5 40.8c-17.6 17.6-17.6 46.1 0 63.6 17.6 17.6 46.1 17.6 63.6 0l127.3-127.3c17.6-17.5 17.6-46 0.1-63.6z"  horiz-adv-x="1024" />

    
    <glyph glyph-name="yonghu" unicode="&#58890;" d="M512 804.5c231.9 0 420.5-188.6 420.5-420.5S743.9-36.5 512-36.5 91.5 152.1 91.5 384 280.1 804.5 512 804.5m0 87C231.7 891.5 4.5 664.3 4.5 384s227.2-507.5 507.5-507.5 507.5 227.2 507.5 507.5S792.3 891.5 512 891.5zM512 601.5c87.9 0 159.5-71.6 159.5-159.5S599.9 282.5 512 282.5 352.5 354.1 352.5 442 424.1 601.5 512 601.5m0 87c-136.1 0-246.5-110.4-246.5-246.5S375.9 195.5 512 195.5 758.5 305.9 758.5 442 648.1 688.5 512 688.5zM192.9 21.5c-9.1 0-18.3 2.8-26.1 8.7-19.2 14.4-23.1 41.7-8.7 60.9 91.4 121.6 231 191.4 382.9 191.4 135.9 0 265.9-58.1 356.6-159.5 16-17.9 14.5-45.4-3.4-61.4-18-16.1-45.5-14.4-61.4 3.4-74.3 83-180.6 130.5-291.8 130.5-124.3 0-238.5-57.1-313.3-156.6-8.5-11.4-21.6-17.4-34.8-17.4z"  horiz-adv-x="1024" />

    
    <glyph glyph-name="tuandui" unicode="&#58891;" d="M375.1 340.9c-132.3 0-240 107.7-240 240s107.7 240 240 240 240-107.7 240-240-107.6-240-240-240z m0 390c-82.7 0-150-67.3-150-150s67.3-150 150-150 150 67.3 150 150-67.3 150-150 150zM525.1-79.1h-300c-91 0-165 74-165 165v120c0 124.1 100.9 225 225 225h180c124.1 0 225-100.9 225-225v-120c0-91-74-165-165-165z m-240 420c-74.4 0-135-60.6-135-135v-120c0-41.4 33.6-75 75-75h300c41.4 0 75 33.6 75 75v120c0 74.4-60.6 135-135 135h-180zM795.1-49.1h-60c-24.8 0-45 20.2-45 45s20.2 45 45 45h60c41.4 0 75 33.6 75 75v120c0 74.4-60.6 135-135 135h-30c-24.8 0-45 20.1-45 45s20.2 45 45 45c31.5 0 90 0 90 150 0 82.7-67.3 150-150 150-24.8 0-45 20.1-45 45s20.2 45 45 45c132.3 0 240-107.7 240-240 0-84.1-17.6-140-44.1-176.5 70.8-37.9 119.1-112.7 119.1-198.5v-120c0-91-74-165-165-165z"  horiz-adv-x="1024" />

    
    <glyph glyph-name="bianji" unicode="&#58892;" d="M767-65.5H227c-91 0-165 74-165 165v540c0 91 74 165 165 165h270c24.8 0 45-20.2 45-45s-20.2-45-45-45H227c-41.4 0-75-33.6-75-75v-540c0-41.4 33.6-75 75-75h540c41.4 0 75 33.6 75 75v270c0 24.8 20.2 45 45 45s45-20.2 45-45v-270c0-91-74-165-165-165zM433.2 230.6c-19.8 0-38.9 7.9-53 22-15.3 15.3-23.2 36.4-21.8 58l7.6 113.6c1.2 18.1 8.9 35.2 21.8 48L719.2 803.7c39.6 39.6 108.8 39.7 148.5 0l63.6-63.6c40.9-40.9 40.9-107.5 0-148.5L599.8 260.2c-12.7-12.8-29.8-20.6-48-21.8h-0.1l-113.6-7.6c-1.6-0.1-3.3-0.2-4.9-0.2z m115.6 52.7h0.3-0.3z m-93.5 129.4l-6.1-90.9 90.9 6.1 327.5 327.5c5.8 5.9 5.8 15.4 0 21.2L804 740.1c-3.8 3.8-8.3 4.4-10.6 4.4s-6.8-0.6-10.6-4.4L455.3 412.7z m80.9-88.9c-0.1 0-0.1 0 0 0z m-80.5 94.6c0-0.1 0-0.1 0 0z"  horiz-adv-x="1024" />

    
    <glyph glyph-name="fenxiang" unicode="&#58893;" d="M782-51H242c-91 0-165 74-165 165V654c0 91 74 165 165 165h270c24.8 0 45-20.2 45-45s-20.2-45-45-45H242c-41.4 0-75-33.6-75-75v-540c0-41.4 33.6-75 75-75h540c41.4 0 75 33.6 75 75V384c0 24.8 20.2 45 45 45s45-20.2 45-45v-270c0-91-74-165-165-165zM902 819H692c-24.9 0-45-20.1-45-45s20.1-45 45-45h101L551.6 487.6c-17.6-17.6-17.6-46.1 0-63.6 17.6-17.6 46.1-17.6 63.6 0L857 665.8V564c0-24.9 20.1-45 45-45s45 20.1 45 45V774c0 24.9-20.1 45-45 45z"  horiz-adv-x="1024" />

    
    <glyph glyph-name="dizhi" unicode="&#58895;" d="M511.7 798.7c93 0 180.3-36.2 246.1-101.9 135.7-135.7 135.7-356.5 0-492.2L532.2-20.9c-7.4-7.4-16-8.5-20.5-8.5s-13.1 1.1-20.5 8.5L265.6 204.6c-135.7 135.7-135.7 356.5 0 492.2 65.7 65.7 153.1 101.9 246.1 101.9m0 87c-111.3 0-222.7-42.5-307.6-127.4-169.9-169.9-169.9-445.3 0-615.2l225.6-225.6c22.6-22.6 52.3-34 82-34s59.4 11.3 82 34l225.6 225.6c169.9 169.9 169.9 445.3 0 615.2-85 85-196.3 127.4-307.6 127.4zM511.7 317.1c-87.9 0-159.5 71.6-159.5 159.5s71.6 159.5 159.5 159.5 159.5-71.6 159.5-159.5-71.6-159.5-159.5-159.5z m0 232c-40 0-72.5-32.5-72.5-72.5s32.5-72.5 72.5-72.5 72.5 32.5 72.5 72.5-32.5 72.5-72.5 72.5z"  horiz-adv-x="1024" />

    
    <glyph glyph-name="shezhi" unicode="&#58896;" d="M512 219c-91 0-165 74-165 165s74 165 165 165 165-74 165-165-74-165-165-165z m0 240c-41.4 0-75-33.6-75-75s33.6-75 75-75 75 33.6 75 75-33.6 75-75 75zM512 795.1c5.3 0 10.4-1.4 15-4l330-190.5c9.3-5.3 15-15.3 15-26v-381c0-10.7-5.7-20.6-15-26L527-23c-4.5-2.6-9.7-4-15-4s-10.4 1.4-15 4L167 167.5c-9.3 5.3-15 15.3-15 26v381c0 10.7 5.7 20.6 15 26L497 791c4.6 2.7 9.7 4.1 15 4.1m0 90c-20.7 0-41.4-5.4-60-16.1L122 678.4c-37.1-21.4-60-61-60-103.9v-381c0-42.9 22.9-82.5 60-103.9L452-101c18.6-10.7 39.3-16.1 60-16.1s41.4 5.4 60 16.1l330 190.5c37.1 21.4 60 61.1 60 103.9v381c0 42.9-22.9 82.5-60 103.9L572 869c-18.6 10.7-39.3 16.1-60 16.1z"  horiz-adv-x="1024" />

    
    <glyph glyph-name="mima" unicode="&#58898;" d="M831 434.8c16 0 29-13 29-29v-406c0-16-13-29-29-29H193c-16 0-29 13-29 29v406c0 16 13 29 29 29h638m0 87H193c-64.1 0-116-51.9-116-116v-406c0-64.1 51.9-116 116-116h638c64.1 0 116 51.9 116 116v406c0 64-51.9 116-116 116zM744 449.2c-24 0-43.5 19.5-43.5 43.5v116c0 103.9-84.6 188.5-188.5 188.5s-188.5-84.6-188.5-188.5v-116c0-24-19.5-43.5-43.5-43.5s-43.5 19.5-43.5 43.5v116c0 151.9 123.6 275.5 275.5 275.5s275.5-123.6 275.5-275.5v-116c0-24-19.5-43.5-43.5-43.5zM512 86.8c-24 0-43.5 19.5-43.5 43.5v145c0 24 19.5 43.5 43.5 43.5s43.5-19.5 43.5-43.5v-145c0-24.1-19.5-43.5-43.5-43.5z"  horiz-adv-x="1024" />

    
    <glyph glyph-name="kecheng" unicode="&#58899;" d="M816.5 790c16 0 29-13 29-29v-754c0-16-13-29-29-29h-609c-16 0-29 13-29 29V761c0 16 13 29 29 29h609m0 87h-609c-64.1 0-116-51.9-116-116v-754c0-64.1 51.9-116 116-116h609c64.1 0 116 51.9 116 116V761c0 64.1-51.9 116-116 116zM780.3 384L620.8 503.6 461.3 384V877h87v-319l72.5 54.4 72.5-54.4V877h87z"  horiz-adv-x="1024" />

    
    <glyph glyph-name="liebiao" unicode="&#58900;" d="M962 639H272c-24.9 0-45 20.1-45 45s20.1 45 45 45h690c24.9 0 45-20.1 45-45s-20.1-45-45-45zM77 684m-60 0a60 60 0 1 1 120 0 60 60 0 1 1-120 0ZM962 339H272c-24.9 0-45 20.1-45 45s20.1 45 45 45h690c24.9 0 45-20.1 45-45s-20.1-45-45-45zM77 384m-60 0a60 60 0 1 1 120 0 60 60 0 1 1-120 0ZM962 39H272c-24.9 0-45 20.1-45 45s20.1 45 45 45h690c24.9 0 45-20.1 45-45s-20.1-45-45-45zM77 84m-60 0a60 60 0 1 1 120 0 60 60 0 1 1-120 0Z"  horiz-adv-x="1024" />

    
    <glyph glyph-name="ditu" unicode="&#58901;" d="M698.9 674h0.2-0.2m-10.6-5.7L917 605.9v-394.7l-193 52.6c-12.9 3.5-26.1 5.3-39.5 5.3-25 0-49.9-6.3-71.8-18.3l-277-151.1L107 162.1V556.8l193-52.6c12.9-3.5 26.1-5.3 39.4-5.3 25 0 49.9 6.3 71.8 18.3l277.1 151.1m-3.8 92.1c-10 0-19.8-2.5-28.7-7.3L368.2 596.2c-8.9-4.8-18.8-7.3-28.7-7.3-5.3 0-10.6 0.7-15.8 2.1L92.8 654c-5.3 1.5-10.7 2.1-15.9 2.1-32.1 0-59.9-26-59.9-60v-456.9c0-27.1 18.1-50.8 44.2-57.9l262.5-71.6c5.2-1.4 10.5-2.1 15.8-2.1 10 0 19.8 2.5 28.7 7.3l287.6 156.9c8.9 4.8 18.8 7.3 28.7 7.3 5.3 0 10.6-0.7 15.8-2.1l230.9-63c5.3-1.5 10.7-2.1 15.9-2.1 32.1 0 59.9 26 59.9 60V628.8c0 27.1-18.1 50.8-44.2 57.9l-262.5 71.6c-5.2 1.4-10.5 2.1-15.8 2.1zM692 189c-24.9 0-45 20.1-45 45V693.4c0 24.9 20.1 45 45 45s45-20.1 45-45V234c0-24.9-20.1-45-45-45zM360.1 27.7c-24.9 0-45 20.1-45 45V532.1c0 24.9 20.1 45 45 45s45-20.1 45-45v-459.4c0-24.8-20.1-45-45-45z"  horiz-adv-x="1024" />

    
    <glyph glyph-name="tupian" unicode="&#58904;" d="M890 681c14.9 0 27-12.1 27-27v-540c0-14.9-12.1-27-27-27H134c-14.9 0-27 12.1-27 27V654c0 14.9 12.1 27 27 27h756m0 81H134c-59.6 0-108-48.4-108-108v-540c0-59.6 48.4-108 108-108h756c59.6 0 108 48.4 108 108V654c0 59.6-48.4 108-108 108zM316.3 505.5m-54 0a54 54 0 1 1 108 0 54 54 0 1 1-108 0ZM138.3 59.8c-11 0-21.9 4.4-29.9 13.2-15.1 16.5-13.9 42.1 2.6 57.2l300.5 274.6c38 34.8 97.7 32.5 132.9-5.4L611 328c5-5.3 13.2-5.8 18.6-1.1l244.2 209.3c17 14.6 42.6 12.6 57.1-4.4 14.6-17 12.6-42.6-4.4-57.1L682.3 265.5c-38.7-33.2-96-29.9-130.7 7.4L485 344.3c-5 5.4-13.6 5.7-19 0.8L165.6 70.4c-7.7-7.1-17.5-10.6-27.3-10.6z"  horiz-adv-x="1024" />

    
    <glyph glyph-name="lianjie" unicode="&#58920;" d="M780.8 114.6H473.6c-21.2 0-38.4 17.2-38.4 38.4s17.2 38.4 38.4 38.4h307.2c91.8 0 166.4 74.6 166.4 166.4 0 90.4-70.9 163.4-161.3 166.1l-25.4 0.8-9.2 23.7c-36.7 94.2-125.6 155-226.5 155-101.1 0-190.1-61.1-226.6-155.6l-10.4-27-28.9 2.6c-5.2 0.5-10.4 0.8-15.7 0.8-91.8 0-166.4-74.7-166.4-166.4s74.6-166.4 166.4-166.4c21.2 0 38.4-17.2 38.4-38.4s-17.2-38.4-38.4-38.4C109.1 114.6 0 223.7 0 357.8 0 490 106.1 597.9 237.6 600.9 291.1 710.7 401 780.2 524.8 780.2c124.5 0 235.2-70.5 288.3-181.5C933.2 583 1024 481.5 1024 357.8c0-134.1-109.1-243.2-243.2-243.2zM463.1 153l99.6 99.6c15 15 15 39.3 0 54.3-7.5 7.5-17.3 11.2-27.2 11.2s-19.7-3.8-27.2-11.2L381.6 180.1c-15-15-15-39.3 0-54.3l126.7-126.7c7.5-7.5 17.3-11.2 27.2-11.2s19.7 3.8 27.2 11.2c15 15 15 39.3 0 54.3L463.1 153z"  horiz-adv-x="1024" />

    
    <glyph glyph-name="shangchuan" unicode="&#58921;" d="M780.8 121.6c-21.2 0-38.4 17.2-38.4 38.4s17.2 38.4 38.4 38.4c91.8 0 166.4 74.7 166.4 166.4 0 90.4-70.9 163.4-161.3 166.1l-25.4 0.8-9.2 23.7c-36.7 94.2-125.6 155.1-226.5 155.1-101.1 0-190.1-61.1-226.6-155.6l-10.4-27-28.9 2.6c-5.2 0.5-10.4 0.8-15.7 0.8-91.8 0-166.4-74.6-166.4-166.4s74.6-166.4 166.4-166.4c21.2 0 38.4-17.2 38.4-38.4s-17.2-38.4-38.4-38.4C109.1 121.6 0 230.7 0 364.8 0 497 106.1 604.9 237.6 607.9 291.1 717.7 401 787.2 524.8 787.2c124.5 0 235.2-70.5 288.3-181.5C933.2 590 1024 488.6 1024 364.8c0-134.1-109.1-243.2-243.2-243.2zM667.2 201.2L540.5 327.9c-3.6 3.6-7.8 6.4-12.6 8.4-0.2 0.1-0.4 0.1-0.6 0.2-4.3 1.7-9 2.7-14 2.7s-9.7-1-14-2.7c-0.2-0.1-0.4-0.1-0.6-0.2-4.7-1.9-9-4.8-12.5-8.3L359.4 201.2c-15-15-15-39.3 0-54.3 7.5-7.5 17.3-11.2 27.2-11.2 9.8 0 19.6 3.8 27.1 11.2l61.2 61.2v-188.9c0-21.2 17.2-38.4 38.4-38.4s38.4 17.2 38.4 38.4V208.1l61.2-61.2c7.5-7.5 17.3-11.2 27.2-11.2s19.7 3.8 27.2 11.2c14.9 15 14.9 39.3-0.1 54.3z"  horiz-adv-x="1024" />

    
    <glyph glyph-name="xiazai" unicode="&#58922;" d="M780.8 121.6c-21.2 0-38.4 17.2-38.4 38.4s17.2 38.4 38.4 38.4c91.8 0 166.4 74.7 166.4 166.4 0 90.4-70.9 163.4-161.3 166.1l-25.4 0.8-9.2 23.7c-36.7 94.2-125.6 155.1-226.5 155.1-101.1 0-190.1-61.1-226.6-155.6l-10.5-27-28.8 2.6c-5.2 0.5-10.4 0.8-15.6 0.8-91.8 0-166.4-74.6-166.4-166.4s74.6-166.4 166.4-166.4c21.2 0 38.4-17.2 38.4-38.4s-17.2-38.4-38.4-38.4C109.1 121.6 0 230.7 0 364.8 0 497 106.1 605 237.6 607.9 291.1 717.7 401 787.2 524.8 787.2c124.5 0 235.2-70.5 288.3-181.5C933.2 590 1024 488.6 1024 364.8c0-134.1-109.1-243.2-243.2-243.2zM667.1 173.1c-7.5 7.5-17.3 11.2-27.1 11.2s-19.7-3.8-27.2-11.2l-61.2-61.2V300.8c0 21.2-17.2 38.4-38.4 38.4s-38.4-17.2-38.4-38.4v-188.9l-61.2 61.2c-7.5 7.5-17.3 11.2-27.1 11.2s-19.7-3.8-27.2-11.2c-15-15-15-39.3 0-54.3L486.1-8c3.5-3.5 7.8-6.4 12.5-8.3 0.2-0.1 0.4-0.1 0.6-0.2 4.4-1.7 9.1-2.7 14-2.7s9.7 1 14 2.7c0.2 0.1 0.4 0.1 0.6 0.2 4.7 2 9 4.8 12.6 8.3l126.7 126.7c15 15.1 15 39.4 0 54.4z"  horiz-adv-x="1024" />

    
    <glyph glyph-name="guanbi" unicode="&#58923;" d="M510.8 806.8c231.9 0 420.5-188.6 420.5-420.5S742.7-34.2 510.8-34.2 90.3 154.5 90.3 386.3 279 806.8 510.8 806.8m0 87C230.5 893.8 3.3 666.6 3.3 386.3s227.2-507.5 507.5-507.5 507.5 227.2 507.5 507.5S791.1 893.8 510.8 893.8zM572.3 386.3l102.5 102.5c17 17 17 44.5 0 61.5-8.5 8.5-19.6 12.7-30.8 12.7s-22.3-4.2-30.8-12.7L510.8 447.8 408.3 550.4c-8.5 8.5-19.6 12.7-30.8 12.7s-22.3-4.2-30.8-12.7c-17-17-17-44.5 0-61.5l102.5-102.5-102.4-102.6c-17-17-17-44.5 0-61.5 8.5-8.5 19.6-12.7 30.8-12.7s22.3 4.2 30.8 12.7l102.5 102.5 102.5-102.5c8.5-8.5 19.6-12.7 30.8-12.7s22.3 4.2 30.8 12.7c17 17 17 44.5 0 61.5L572.3 386.3z"  horiz-adv-x="1024" />

    
    <glyph glyph-name="tianjia" unicode="&#58924;" d="M512 803.3c231.9 0 420.5-188.6 420.5-420.5S743.9-37.7 512-37.7 91.5 151 91.5 382.8 280.1 803.3 512 803.3m0 87C231.7 890.3 4.5 663.1 4.5 382.8s227.2-507.5 507.5-507.5 507.5 227.2 507.5 507.5S792.3 890.3 512 890.3zM700.5 426.3h-145v145c0 24-19.5 43.5-43.5 43.5s-43.5-19.5-43.5-43.5v-145h-145c-24 0-43.5-19.5-43.5-43.5s19.5-43.5 43.5-43.5h145v-145c0-24 19.5-43.5 43.5-43.5s43.5 19.5 43.5 43.5v145h145c24 0 43.5 19.5 43.5 43.5 0 24.1-19.5 43.5-43.5 43.5z"  horiz-adv-x="1024" />

    
    <glyph glyph-name="guanji" unicode="&#58925;" d="M509.1-107.3c-239.9 0-435 195.1-435 435 0 109.3 40.7 213.8 114.6 294.2 21.7 23.6 46.1 44.9 72.2 63.1 20.4 14.2 48.5 9.1 62.6-11.3 14.2-20.4 9.1-48.5-11.3-62.6-20.8-14.5-40.1-31.3-57.4-50.1-58.6-63.8-90.8-146.6-90.8-233.3 0-190.2 154.8-345 345-345s345 154.8 345 345c0 88.3-33.3 172.3-93.8 236.5-16.5 17.5-34.8 33.3-54.4 46.9-20.4 14.2-25.4 42.2-11.3 62.6 14.2 20.4 42.2 25.5 62.6 11.3 24.7-17.2 47.8-37.1 68.5-59.1 76.3-81 118.3-186.9 118.3-298.2 0.2-239.9-194.9-435-434.8-435zM509.1 882.7c-24.9 0-45-20.1-45-45v-390c0-24.9 20.1-45 45-45s45 20.1 45 45v390c0 24.8-20.1 45-45 45z"  horiz-adv-x="1024" />

    
    <glyph glyph-name="wenjian" unicode="&#58926;" d="M379 745.2c11.4 0 21.7-6.4 26.8-16.6L462.7 615c15.2-30.5 46.4-49.7 80.5-49.7h300c16.5 0 30-13.5 30-30v-480c0-16.5-13.5-30-30-30h-660c-16.5 0-30 13.5-30 30v660c0 16.5 13.5 30 30 30H379m0 89.9H183.2c-66.3 0-120-53.7-120-120v-660c0-66.3 53.7-120 120-120h660c66.3 0 120 53.7 120 120v480c0 66.3-53.7 120-120 120h-300l-56.8 113.7C466 809.5 424.5 835.2 379 835.2zM918.2 445.2h-390c-24.9 0-45-20.1-45-45s20.1-45 45-45h390c24.9 0 45 20.1 45 45s-20.1 45-45 45z"  horiz-adv-x="1024" />

    
    <glyph glyph-name="dayin" unicode="&#58927;" d="M904 608c15.4 0 28-12.6 28-28v-448c0-15.4-12.6-28-28-28H120c-15.4 0-28 12.6-28 28V580c0 15.4 12.6 28 28 28h784m0 84H120C58.1 692 8 641.9 8 580v-448c0-61.9 50.1-112 112-112h784c61.9 0 112 50.1 112 112V580c0 61.9-50.1 112-112 112zM708 720v-28H316v28h392m28 84H288c-30.9 0-56-25.1-56-56v-84c0-30.9 25.1-56 56-56h448c30.9 0 56 25.1 56 56v84c0 30.9-25.1 56-56 56zM372 6c-38.6 0-70 31.4-70 70s31.4 70 70 70h280c38.6 0 70-31.4 70-70s-31.4-70-70-70H372zM652 104c15.4 0 28-12.6 28-28s-12.6-28-28-28H372c-15.4 0-28 12.6-28 28s12.6 28 28 28h280m0 84H372c-61.9 0-112-50.1-112-112s50.1-112 112-112h280c61.9 0 112 50.1 112 112s-50.1 112-112 112zM330 412h-84c-23.2 0-42 18.8-42 42s18.8 42 42 42h84c23.2 0 42-18.8 42-42s-18.8-42-42-42zM330 496h-84c-23.2 0-42-18.8-42-42s18.8-42 42-42h84c23.2 0 42 18.8 42 42s-18.8 42-42 42z"  horiz-adv-x="1024" />

    
    <glyph glyph-name="paizhao" unicode="&#58928;" d="M605 744c13 0 24.5-8.3 28.5-20.7l4.1-12.5c14.8-51.3 61.6-86.8 115.3-86.8H872c16.5 0 30-13.5 30-30v-540c0-16.5-13.5-30-30-30H152c-16.5 0-30 13.5-30 30V594c0 16.5 13.5 30 30 30h119.1c53.7 0 100.6 35.5 115.3 86.8l4.1 12.5c4 12.4 15.5 20.7 28.5 20.7h186m0 90H419c-51.9 0-97.9-33.4-114.1-82.7l-4.8-14.6c-3.3-13.4-15.3-22.7-29.1-22.7H152c-66.3 0-120-53.7-120-120v-540c0-66.3 53.7-120 120-120h720c66.3 0 120 53.7 120 120V594c0 66.3-53.7 120-120 120H752.9c-13.8 0-25.8 9.4-29.1 22.7l-4.8 14.6C702.9 800.6 656.9 834 605 834zM512 444c66.2 0 120-53.8 120-120s-53.8-120-120-120-120 53.8-120 120 53.8 120 120 120m0 90c-116 0-210-94-210-210s94-210 210-210 210 94 210 210-94 210-210 210zM812 519m-45 0a45 45 0 1 1 90 0 45 45 0 1 1-90 0Z"  horiz-adv-x="1024" />

    
    <glyph glyph-name="biaoqian" unicode="&#58929;" d="M842.9 774.2v-750.3c0-18.6-15.5-30.1-29.9-30.1-4 0-7.9 0.8-11.9 2.6L548.4 104.6l-35.5 15.2-35.5-15.2-252.7-108.3c-4-1.7-7.9-2.6-11.9-2.6-14.4 0-29.9 11.5-29.9 30.1V774.2h660m0 90h-660c-49.7 0-90-40.3-90-90v-750.3c0-69.1 56.7-120.1 119.9-120.1 15.6 0 31.7 3.1 47.3 9.8l252.7 108.3 252.7-108.3c15.7-6.7 31.7-9.8 47.3-9.8 63.3 0 119.9 51 119.9 120.1V774.2c0.2 49.7-40.1 90-89.8 90zM512.9 548.1c-6.6 0-13.2-3.4-16.5-10.3l-29-58.7c-2.7-5.4-7.9-9.2-13.9-10.1l-64.8-9.4c-15.1-2.2-21.2-20.8-10.2-31.5l46.9-45.7c4.3-4.2 6.3-10.3 5.3-16.3l-11.1-64.5c-2-11.9 7.4-21.6 18.2-21.6 2.8 0 5.8 0.7 8.6 2.2l57.9 30.5c2.7 1.4 5.6 2.1 8.6 2.1s5.9-0.7 8.6-2.1l57.9-30.5c2.8-1.5 5.7-2.2 8.6-2.2 10.7 0 20.2 9.7 18.2 21.6l-11.1 64.5c-1 6 1 12.1 5.3 16.3l46.9 45.7c10.9 10.7 4.9 29.3-10.2 31.5l-64.8 9.4c-6 0.9-11.2 4.6-13.9 10.1l-29 58.7c-3.3 6.8-9.9 10.3-16.5 10.3z"  horiz-adv-x="1024" />

    
    <glyph glyph-name="faxian" unicode="&#58930;" d="M509.2 801.7c231.9 0 420.5-188.6 420.5-420.5S741.1-39.3 509.2-39.3 88.7 149.4 88.7 381.2 277.4 801.7 509.2 801.7m0 87C228.9 888.7 1.7 661.5 1.7 381.2s227.2-507.5 507.5-507.5 507.5 227.2 507.5 507.5S789.5 888.7 509.2 888.7zM595.2 467.5L545 345.2l-121.7-50.3 50.1 122.3 121.8 50.3m106.6 135.9c-3.7 0-7.4-0.7-11.2-2.3L417.8 488.4c-7.1-3-12.8-8.6-15.7-15.8L290 199.1c-8.2-20.1 7.3-40.1 26.7-40.1 3.7 0 7.4 0.7 11.2 2.3l272.7 112.8c7.2 3 12.8 8.6 15.8 15.8l112.1 273.5c8.2 20-7.4 40-26.7 40z"  horiz-adv-x="1024" />

    
    <glyph glyph-name="wendang" unicode="&#58931;" d="M815.196646 806.149166c16.472653 0 29.950278-13.477625 29.950278-29.950277v-778.707225c0-16.472653-13.477625-29.950278-29.950278-29.950278h-599.005557c-16.472653 0-29.950278 13.477625-29.950278 29.950278v778.707225c0 16.472653 13.477625 29.950278 29.950278 29.950277h599.005557m0 89.850834h-599.005557c-66.190114 0-119.801111-53.610997-119.801111-119.801111v-778.707225c0-66.190114 53.610997-119.801111 119.801111-119.801111h599.005557c66.190114 0 119.801111 53.610997 119.801112 119.801111v778.707225c0 66.190114-53.610997 119.801111-119.801112 119.801111zM470.768451 656.397777h-149.751389c-24.858731 0-44.925417-20.066686-44.925417-44.925417s20.066686-44.925417 44.925417-44.925416h149.751389c24.858731 0 44.925417 20.066686 44.925417 44.925416 0 24.758896-20.16652 44.925417-44.925417 44.925417zM650.470118 506.646388h-329.453056c-24.858731 0-44.925417-20.066686-44.925417-44.925417s20.066686-44.925417 44.925417-44.925417h329.453056c24.858731 0 44.925417 20.066686 44.925417 44.925417 0 24.758896-20.16652 44.925417-44.925417 44.925417zM276.091645 87.342498c16.472653 0 29.950278-13.477625 29.950278-29.950278v-89.850834h-89.850834c-16.472653 0-29.950278 13.477625-29.950278 29.950278v89.850834h89.850834m0 89.850833h-179.701667v-179.701667c0-66.190114 53.610997-119.801111 119.801111-119.801111h179.701667v179.701667c0 66.190114-53.610997 119.801111-119.801111 119.801111zM845.146924 87.342498v-89.850834c0-16.472653-13.477625-29.950278-29.950278-29.950278h-89.850833v89.850834c0 16.472653 13.477625 29.950278 29.950277 29.950278h89.850834m89.850834 89.850833h-179.701668c-66.190114 0-119.801111-53.610997-119.801111-119.801111v-179.701667h179.701667c66.190114 0 119.801111 53.610997 119.801112 119.801111v179.701667z"  horiz-adv-x="1024" />

    
    <glyph glyph-name="xiayibu" unicode="&#58933;" d="M512 804.5c231.9 0 420.5-188.6 420.5-420.5S743.9-36.5 512-36.5 91.5 152.1 91.5 384 280.1 804.5 512 804.5m0 87C231.7 891.5 4.5 664.3 4.5 384s227.2-507.5 507.5-507.5 507.5 227.2 507.5 507.5S792.3 891.5 512 891.5zM643.5 414.8L500 558.3c-8.5 8.5-19.6 12.7-30.8 12.7-11.1 0-22.3-4.2-30.8-12.7-17-17-17-44.5 0-61.5L551.3 384 438.5 271.2c-17-17-17-44.5 0-61.5 8.5-8.5 19.6-12.7 30.8-12.7 11.1 0 22.3 4.2 30.8 12.7l143.5 143.5c16.9 17 16.9 44.6-0.1 61.6z"  horiz-adv-x="1024" />

    
    <glyph glyph-name="dianzan" unicode="&#58934;" d="M118.6 481c15.4 0 28-12.6 28-28v-364c0-15.4-12.6-28-28-28s-28 12.6-28 28V453c0 15.5 12.6 28 28 28m0 84c-61.9 0-112-50.1-112-112v-364c0-61.9 50.1-112 112-112s112 50.1 112 112V453c0 61.9-50.1 112-112 112zM594.6 705c15.4 0 28-12.6 28-28v-196h284.7c11.5 0 18.4-6.4 21.6-10.1s8.1-11.8 5.9-23.1l-69.3-364C863 70.6 851.4 61 838 61H398.6c-15.4 0-28 12.6-28 28V453c0 15.4 12.6 28 28 28H504.4l18.2 59.5 44.2 144.7c3.6 11.9 14.4 19.8 26.8 19.8h1m0 84h-1.1c-49.3 0-92.7-32.2-107.1-79.3L442.2 565h-43.6c-61.9 0-112-50.1-112-112v-364c0-61.9 50.1-112 112-112h439.3c53.8 0 100 38.2 110 91l69.3 364c13.1 69-39.8 133-110 133H706.6V677c0 61.9-50.1 112-112 112z"  horiz-adv-x="1024" />

    
    <glyph glyph-name="guanzhu" unicode="&#58935;" d="M714.3 722.8c54.2 0 105.2-21.1 143.5-59.5 38.3-38.3 59.5-89.3 59.5-143.5s-21.1-105.2-59.5-143.5L529.7 48.1c-7.4-7.4-16-8.5-20.5-8.5s-13.1 1.1-20.5 8.5L160.6 376.2c-38.3 38.3-59.5 89.3-59.5 143.5s21.1 105.2 59.5 143.5c38.3 38.3 89.3 59.5 143.5 59.5s105.2-21.1 143.5-59.5c14.4-14.4 33.5-23.3 53.9-25.1 2.6-0.2 5.1-0.3 7.7-0.3 23 0 45.1 9.1 61.5 25.5 38.4 38.4 89.4 59.5 143.6 59.5m0 87c-74.2 0-148.4-28.3-205.1-84.9-56.6 56.6-130.9 84.9-205.1 84.9-74.2 0-148.4-28.3-205.1-84.9-113.2-113.3-113.2-296.9 0.1-410.2l328.1-328.1c22.6-22.7 52.3-34 82-34 29.7 0 59.4 11.3 82 34l328.1 328.1c113.3 113.3 113.3 296.9 0 410.1-56.6 56.7-130.8 85-205 85z"  horiz-adv-x="1024" />

    
    <glyph glyph-name="qitawendang" unicode="&#58936;" d="M860-43.8H164c-87.9 0-159.5 71.6-159.5 159.5v464c0 87.9 71.6 159.5 159.5 159.5h145c24 0 43.5-19.5 43.5-43.5S333 652.2 309 652.2H164c-40 0-72.5-32.5-72.5-72.5v-464c0-40 32.5-72.5 72.5-72.5h696c40 0 72.5 32.5 72.5 72.5v464c0 40-32.5 72.5-72.5 72.5H715c-24 0-43.5 19.5-43.5 43.5s19.5 43.5 43.5 43.5h145c87.9 0 159.5-71.6 159.5-159.5v-464c0-87.9-71.6-159.5-159.5-159.5zM787.5 463.8h-551c-24 0-43.5-19.5-43.5-43.5s19.5-43.5 43.5-43.5h551c24 0 43.5 19.5 43.5 43.5s-19.5 43.5-43.5 43.5zM787.5 260.8h-551c-24 0-43.5-19.5-43.5-43.5s19.5-43.5 43.5-43.5h551c24 0 43.5 19.5 43.5 43.5s-19.5 43.5-43.5 43.5zM352.5 811.8c-24 0-43.5-19.5-43.5-43.5v-145c0-24 19.5-43.5 43.5-43.5s43.5 19.5 43.5 43.5v145c0 24-19.5 43.5-43.5 43.5zM671.5 811.8c-24 0-43.5-19.5-43.5-43.5v-145c0-24 19.5-43.5 43.5-43.5s43.5 19.5 43.5 43.5v145c0 24-19.5 43.5-43.5 43.5z"  horiz-adv-x="1024" />

    
    <glyph glyph-name="daimawendang" unicode="&#58937;" d="M860-58.2H164c-87.9 0-159.5 71.6-159.5 159.5v464c0 87.9 71.6 159.5 159.5 159.5h145c24 0 43.5-19.5 43.5-43.5S333 637.8 309 637.8H164c-40 0-72.5-32.5-72.5-72.5v-464c0-40 32.5-72.5 72.5-72.5h696c40 0 72.5 32.5 72.5 72.5v464c0 40-32.5 72.5-72.5 72.5H715c-24 0-43.5 19.5-43.5 43.5s19.5 43.5 43.5 43.5h145c87.9 0 159.5-71.6 159.5-159.5v-464c0-88-71.6-159.5-159.5-159.5zM787.5 449.2h-145c-24 0-43.5-19.5-43.5-43.5s19.5-43.5 43.5-43.5h145c24 0 43.5 19.5 43.5 43.5 0 24.1-19.5 43.5-43.5 43.5zM555.5 826.2c-15 0-29.7-7.8-37.7-21.8L184.3 226.8c-12-20.8-4.9-47.4 15.9-59.4 6.8-4 14.3-5.8 21.7-5.8 15 0 29.7 7.8 37.7 21.8L593.2 761c12 20.8 4.9 47.4-15.9 59.4-6.9 4-14.4 5.8-21.8 5.8zM787.5 246.2h-377c-24 0-43.5-19.5-43.5-43.5s19.5-43.5 43.5-43.5h377c24 0 43.5 19.5 43.5 43.5 0 24.1-19.5 43.5-43.5 43.5z"  horiz-adv-x="1024" />

    
    <glyph glyph-name="naozhong" unicode="&#58938;" d="M514.9 736.5c191.9 0 348-156.1 348-348s-156.1-348-348-348-348 156.1-348 348 156.1 348 348 348m0 87c-240.2 0-435-194.8-435-435s194.8-435 435-435 435 194.8 435 435-194.7 435-435 435zM160.9 700.8c-11.2 0-22.3 4.2-30.8 12.8-17 17-16.9 44.6 0.1 61.5 45.9 45.7 99 82.4 157.8 109 21.8 9.9 47.7 0.2 57.5-21.7 9.9-21.9 0.2-47.7-21.7-57.5-49.3-22.3-93.8-53.1-132.2-91.4-8.5-8.4-19.6-12.7-30.7-12.7zM868.3 700.8c-11.1 0-22.2 4.2-30.7 12.7-38.4 38.3-82.9 69.1-132.2 91.4-21.9 9.9-31.6 35.7-21.7 57.6s35.7 31.6 57.6 21.7c58.8-26.6 111.9-63.3 157.8-109 17-17 17-44.5 0.1-61.5-8.6-8.6-19.8-12.9-30.9-12.9zM719.2 463.1c-6.4 17.6-23.1 28.6-40.9 28.6-5 0-10-0.9-14.9-2.7l-105-38.4V562.5c0 24-19.5 43.5-43.5 43.5s-43.5-19.5-43.5-43.5v-174c0-1.1 0.2-2.1 0.3-3.1 0.1-1.5 0.2-2.9 0.4-4.4 0.3-1.7 0.8-3.3 1.3-4.9 0.3-0.8 0.3-1.7 0.6-2.5l0.3-0.6c1.5-3.8 3.4-7.3 5.8-10.5 0.5-0.7 1-1.2 1.5-1.9 2.4-2.9 5.1-5.6 8.3-7.8 0.1-0.1 0.2-0.2 0.4-0.3 3.2-2.2 6.7-3.8 10.5-5.1 0.8-0.3 1.6-0.5 2.4-0.8 3.7-1 7.6-1.8 11.7-1.8h0.1c4.8 0 9.4 1 13.7 2.4 0.4 0.1 0.7 0.1 1.1 0.2l163.4 59.7c22.7 8.5 34.3 33.4 26 56zM237.5 30.8c-11.1 0-22.3-4.2-30.8-12.7l-61.5-61.5c-17-17-17-44.5 0-61.5 8.5-8.5 19.6-12.7 30.8-12.7 11.1 0 22.3 4.2 30.8 12.7l61.5 61.5c17 17 17 44.5 0 61.5-8.5 8.4-19.7 12.7-30.8 12.7zM797.4 34.9c-11.1 0-22.3-4.2-30.8-12.7-17-17-17-44.5 0-61.5l61.5-61.5c8.5-8.5 19.6-12.7 30.8-12.7s22.3 4.2 30.8 12.7c17 17 17 44.5 0 61.5l-61.5 61.5c-8.5 8.5-19.7 12.7-30.8 12.7z"  horiz-adv-x="1024" />

    
    <glyph glyph-name="bofang" unicode="&#58939;" d="M512 804.5c231.9 0 420.5-188.6 420.5-420.5S743.9-36.5 512-36.5 91.5 152.1 91.5 384 280.1 804.5 512 804.5m0 87C231.7 891.5 4.5 664.3 4.5 384s227.2-507.5 507.5-507.5 507.5 227.2 507.5 507.5S792.3 891.5 512 891.5zM473.9 466.1L617.6 384 474 301.9V466.1m-29 108c-30.3 0-58.1-24.2-58.1-58.1v-264.1c0-33.8 27.8-58.1 58.1-58.1 9.6 0 19.4 2.4 28.7 7.7l231.1 132.1c39 22.3 39 78.5 0 100.7L473.7 566.4c-9.3 5.3-19.1 7.7-28.7 7.7z"  horiz-adv-x="1024" />

    
    <glyph glyph-name="zanting" unicode="&#58940;" d="M512 804.5c231.9 0 420.5-188.6 420.5-420.5S743.9-36.5 512-36.5 91.5 152.1 91.5 384 280.1 804.5 512 804.5m0 87C231.7 891.5 4.5 664.3 4.5 384s227.2-507.5 507.5-507.5 507.5 227.2 507.5 507.5S792.3 891.5 512 891.5zM407.5 558c-24 0-43.5-19.5-43.5-43.5v-261c0-24 19.5-43.5 43.5-43.5s43.5 19.5 43.5 43.5v261c0 24-19.5 43.5-43.5 43.5zM616.5 558c-24 0-43.5-19.5-43.5-43.5v-261c0-24 19.5-43.5 43.5-43.5s43.5 19.5 43.5 43.5v261c0 24-19.5 43.5-43.5 43.5z"  horiz-adv-x="1024" />

    
    <glyph glyph-name="luxiang" unicode="&#58941;" d="M512 804.5c231.9 0 420.5-188.6 420.5-420.5S743.9-36.5 512-36.5 91.5 152.1 91.5 384 280.1 804.5 512 804.5m0 87C231.7 891.5 4.5 664.3 4.5 384s227.2-507.5 507.5-507.5 507.5 227.2 507.5 507.5S792.3 891.5 512 891.5zM599 500c16 0 29-13 29-29v-174c0-16-13-29-29-29H425c-16 0-29 13-29 29V471c0 16 13 29 29 29h174m0 87H425c-64.1 0-116-51.9-116-116v-174c0-64.1 51.9-116 116-116h174c64.1 0 116 51.9 116 116V471c0 64.1-51.9 116-116 116z"  horiz-adv-x="1024" />

    
    <glyph glyph-name="kuaijin" unicode="&#58942;" d="M515.5 804.5C747.4 804.5 936 615.9 936 384S747.4-36.5 515.5-36.5 95 152.1 95 384 283.6 804.5 515.5 804.5m0 87C235.2 891.5 8 664.3 8 384s227.2-507.5 507.5-507.5S1023 103.7 1023 384 795.8 891.5 515.5 891.5zM337.7 445.2l84.1-61.2-84.1-61.2V445.2m-28.8 115c-30.1 0-58.2-23.8-58.2-58.1v-236.2c0-34.3 28.1-58.1 58.2-58.1 11.5 0 23.3 3.5 33.9 11.2l162.4 118.1c31.9 23.2 31.9 70.7 0 93.8L342.8 549c-10.6 7.7-22.4 11.2-33.9 11.2zM529.1 445.2l84.1-61.2-84.1-61.2V445.2m-28.8 115c-30.1 0-58.2-23.8-58.2-58.1v-236.2c0-34.3 28.1-58.1 58.2-58.1 11.5 0 23.3 3.5 33.9 11.2l162.4 118.1c31.9 23.2 31.9 70.7 0 93.8L534.2 549c-10.6 7.7-22.4 11.2-33.9 11.2zM736.8 529c-24 0-43.5-19.5-43.5-43.5v-203c0-24 19.5-43.5 43.5-43.5s43.5 19.5 43.5 43.5v203c0 24-19.5 43.5-43.5 43.5z"  horiz-adv-x="1024" />

    
    <glyph glyph-name="kuaitui" unicode="&#58943;" d="M512 805.7c231.9 0 420.5-188.6 420.5-420.5S743.9-35.3 512-35.3 91.5 153.3 91.5 385.2 280.1 805.7 512 805.7m0 87C231.7 892.7 4.5 665.5 4.5 385.2s227.2-507.5 507.5-507.5 507.5 227.2 507.5 507.5S792.3 892.7 512 892.7zM689.8 446.3V324l-84.1 61.2 84.1 61.1m28.8 115.1c-11.5 0-23.3-3.5-33.9-11.2L522.3 432.1c-31.9-23.2-31.9-70.6 0-93.8l162.4-118.1c10.6-7.7 22.4-11.2 33.9-11.2 30.1 0 58.2 23.8 58.2 58.1V503.3c0 34.3-28.1 58.1-58.2 58.1zM498.4 446.3V324l-84.1 61.2 84.1 61.1m28.8 115.1c-11.5 0-23.3-3.5-33.9-11.2L330.9 432.1c-31.9-23.2-31.9-70.6 0-93.8l162.4-118.1c10.6-7.7 22.4-11.2 33.9-11.2 30.1 0 58.2 23.8 58.2 58.1V503.3c0 34.3-28.1 58.1-58.2 58.1zM290.7 530.2c-24 0-43.5-19.5-43.5-43.5v-203c0-24 19.5-43.5 43.5-43.5s43.5 19.5 43.5 43.5v203c0 24-19.5 43.5-43.5 43.5z"  horiz-adv-x="1024" />

    
    <glyph glyph-name="shengyin" unicode="&#58944;" d="M602.2-17.5c-34.9 0-69.6 11.2-98.8 33.1l-152 114c-2.6 2-5.7 3-9 3h-130c-91 0-165 74-165 165v180c0 91 74 165 165 165h130c3.3 0 6.4 1.1 9 3l152 114c50.3 37.7 116.5 43.7 172.8 15.6 56.3-28.1 91.2-84.7 91.2-147.6v-480c0-62.9-35-119.4-91.2-147.6-23.6-11.7-48.9-17.5-74-17.5z m-44.8 105.2c23.2-17.4 52.6-20 78.5-7.1 26 13 41.5 38.1 41.5 67.1v480c0 29-15.5 54.1-41.5 67.1s-55.3 10.3-78.5-7.1l-152-114c-18.1-13.5-40.5-21-63-21h-130c-41.4 0-75-33.6-75-75v-180c0-41.4 33.6-75 75-75h130c22.6 0 44.9-7.4 63-21l152-114zM854.4 110.8c-10.2 0-20.5 3.5-29 10.6-19 16-21.4 44.4-5.4 63.4 47.7 56.6 74 128.7 74 202.9s-26.3 146.2-74 202.9c-16 19-13.6 47.4 5.4 63.4 19.1 16 47.4 13.5 63.4-5.4 61.3-72.9 95.2-165.5 95.2-260.9s-33.8-188-95.2-260.9c-8.8-10.5-21.5-16-34.4-16z"  horiz-adv-x="1024" />

    
    <glyph glyph-name="guanbishengyin" unicode="&#58945;" d="M630.1-21.1c-34.9 0-69.6 11.2-98.8 33.1l-152 114c-2.5 1.9-5.7 3-9 3h-130c-91 0-165 74-165 165V474c0 91 74 165 165 165h130c3.2 0 6.4 1.1 9 3l152 114c50.4 37.7 116.6 43.7 172.8 15.6 56.3-28.1 91.2-84.7 91.2-147.6v-33.5c0-24.8-20.2-45-45-45s-45 20.2-45 45V624c0 29-15.5 54.1-41.5 67.1-25.9 13-55.3 10.3-78.6-7.1l-152-114c-18-13.5-40.4-21-63-21h-130c-41.4 0-75-33.6-75-75v-180c0-41.4 33.6-75 75-75h130c22.6 0 45-7.5 63-21l152-114c23.2-17.4 52.6-20 78.5-7.1 26 13 41.5 38.1 41.5 67.1v86.5c0 24.8 20.2 45 45 45s45-20.2 45-45V144c0-62.9-35-119.4-91.2-147.6-23.5-11.7-48.8-17.5-73.9-17.5zM903.8 609.3c-11.5 0-23-4.4-31.8-13.2L511.3 235.5c-17.6-17.6-17.6-46.1 0-63.6 8.8-8.8 20.3-13.2 31.8-13.2s23 4.4 31.8 13.2l360.6 360.6c17.6 17.6 17.6 46.1 0 63.6-8.7 8.8-20.2 13.2-31.7 13.2z"  horiz-adv-x="1024" />

    
    <glyph glyph-name="shengyin1" unicode="&#58946;" d="M602.2-17.5c-34.9 0-69.6 11.2-98.8 33.1l-152 114c-2.6 2-5.7 3-9 3h-130c-91 0-165 74-165 165v180c0 91 74 165 165 165h130c3.3 0 6.4 1.1 9 3l152 114c50.3 37.7 116.5 43.7 172.8 15.6 56.3-28.1 91.2-84.7 91.2-147.6v-480c0-62.9-35-119.4-91.2-147.6-23.6-11.7-48.9-17.5-74-17.5z m-44.8 105.2c23.2-17.4 52.6-20 78.5-7.1 26 13 41.5 38.1 41.5 67.1v480c0 29-15.5 54.1-41.5 67.1s-55.3 10.3-78.5-7.1l-152-114c-18.1-13.5-40.5-21-63-21h-130c-41.4 0-75-33.6-75-75v-180c0-41.4 33.6-75 75-75h130c22.6 0 44.9-7.4 63-21l152-114zM854.4 110.8c-10.2 0-20.5 3.5-29 10.6-19 16-21.4 44.4-5.4 63.4 47.7 56.6 74 128.7 74 202.9s-26.3 146.2-74 202.9c-16 19-13.6 47.4 5.4 63.4 19.1 16 47.4 13.5 63.4-5.4 61.3-72.9 95.2-165.5 95.2-260.9s-33.8-188-95.2-260.9c-8.8-10.5-21.5-16-34.4-16z"  horiz-adv-x="1024" />

    


  </font>
</defs>
</svg>
